<svg width="80" height="10" viewBox="0 0 80 10" fill="none" xmlns="http://www.w3.org/2000/svg">
<path d="M5.193 9.38936C4.545 9.38936 3.941 9.28536 3.381 9.07736C2.829 8.86136 2.349 8.55736 1.941 8.16536C1.533 7.77336 1.213 7.31336 0.981002 6.78536C0.757002 6.25736 0.645002 5.67736 0.645002 5.04536C0.645002 4.41336 0.757002 3.83336 0.981002 3.30536C1.213 2.77736 1.533 2.31736 1.941 1.92536C2.357 1.53336 2.841 1.23336 3.393 1.02536C3.945 0.809361 4.549 0.701361 5.205 0.701361C5.933 0.701361 6.589 0.829361 7.173 1.08536C7.765 1.33336 8.261 1.70136 8.661 2.18936L7.413 3.34136C7.125 3.01336 6.805 2.76936 6.453 2.60936C6.101 2.44136 5.717 2.35736 5.301 2.35736C4.909 2.35736 4.549 2.42136 4.221 2.54936C3.893 2.67736 3.609 2.86136 3.369 3.10136C3.129 3.34136 2.941 3.62536 2.805 3.95336C2.677 4.28136 2.613 4.64536 2.613 5.04536C2.613 5.44536 2.677 5.80936 2.805 6.13736C2.941 6.46536 3.129 6.74936 3.369 6.98936C3.609 7.22936 3.893 7.41336 4.221 7.54136C4.549 7.66936 4.909 7.73336 5.301 7.73336C5.717 7.73336 6.101 7.65336 6.453 7.49336C6.805 7.32536 7.125 7.07336 7.413 6.73736L8.661 7.88936C8.261 8.37736 7.765 8.74936 7.173 9.00536C6.589 9.26136 5.929 9.38936 5.193 9.38936ZM12.3311 9.34136C11.6431 9.34136 11.0311 9.19736 10.4951 8.90936C9.96713 8.62136 9.54713 8.22936 9.23513 7.73336C8.93113 7.22936 8.77913 6.65736 8.77913 6.01736C8.77913 5.36936 8.93113 4.79736 9.23513 4.30136C9.54713 3.79736 9.96713 3.40536 10.4951 3.12536C11.0311 2.83736 11.6431 2.69336 12.3311 2.69336C13.0111 2.69336 13.6191 2.83736 14.1551 3.12536C14.6911 3.40536 15.1111 3.79336 15.4151 4.28936C15.7191 4.78536 15.8711 5.36136 15.8711 6.01736C15.8711 6.65736 15.7191 7.22936 15.4151 7.73336C15.1111 8.22936 14.6911 8.62136 14.1551 8.90936C13.6191 9.19736 13.0111 9.34136 12.3311 9.34136ZM12.3311 7.80536C12.6431 7.80536 12.9231 7.73336 13.1711 7.58936C13.4191 7.44536 13.6151 7.24136 13.7591 6.97736C13.9031 6.70536 13.9751 6.38536 13.9751 6.01736C13.9751 5.64136 13.9031 5.32136 13.7591 5.05736C13.6151 4.79336 13.4191 4.58936 13.1711 4.44536C12.9231 4.30136 12.6431 4.22936 12.3311 4.22936C12.0191 4.22936 11.7391 4.30136 11.4911 4.44536C11.2431 4.58936 11.0431 4.79336 10.8911 5.05736C10.7471 5.32136 10.6751 5.64136 10.6751 6.01736C10.6751 6.38536 10.7471 6.70536 10.8911 6.97736C11.0431 7.24136 11.2431 7.44536 11.4911 7.58936C11.7391 7.73336 12.0191 7.80536 12.3311 7.80536ZM19.4864 9.34136C18.9504 9.34136 18.4704 9.23736 18.0464 9.02936C17.6304 8.82136 17.3064 8.50536 17.0744 8.08136C16.8424 7.64936 16.7264 7.10136 16.7264 6.43736V2.78936H18.5984V6.16136C18.5984 6.69736 18.7104 7.09336 18.9344 7.34936C19.1664 7.59736 19.4904 7.72136 19.9064 7.72136C20.1944 7.72136 20.4504 7.66136 20.6744 7.54136C20.8984 7.41336 21.0744 7.22136 21.2024 6.96536C21.3304 6.70136 21.3944 6.37336 21.3944 5.98136V2.78936H23.2664V9.24536H21.4904V7.46936L21.8144 7.98536C21.5984 8.43336 21.2784 8.77336 20.8544 9.00536C20.4384 9.22936 19.9824 9.34136 19.4864 9.34136ZM24.6407 9.24536V2.78936H26.4287V4.61336L26.1767 4.08536C26.3687 3.62936 26.6767 3.28536 27.1007 3.05336C27.5247 2.81336 28.0407 2.69336 28.6487 2.69336V4.42136C28.5687 4.41336 28.4967 4.40936 28.4327 4.40936C28.3687 4.40136 28.3007 4.39736 28.2287 4.39736C27.7167 4.39736 27.3007 4.54536 26.9807 4.84136C26.6687 5.12936 26.5127 5.58136 26.5127 6.19736V9.24536H24.6407ZM31.6207 9.34136C31.0687 9.34136 30.5367 9.27736 30.0247 9.14936C29.5207 9.01336 29.1207 8.84536 28.8247 8.64536L29.4487 7.30136C29.7447 7.48536 30.0927 7.63736 30.4927 7.75736C30.9007 7.86936 31.3007 7.92536 31.6927 7.92536C32.1247 7.92536 32.4287 7.87336 32.6047 7.76936C32.7887 7.66536 32.8807 7.52136 32.8807 7.33736C32.8807 7.18536 32.8087 7.07336 32.6647 7.00136C32.5287 6.92136 32.3447 6.86136 32.1127 6.82136C31.8807 6.78136 31.6247 6.74136 31.3447 6.70136C31.0727 6.66136 30.7967 6.60936 30.5167 6.54536C30.2367 6.47336 29.9807 6.36936 29.7487 6.23336C29.5167 6.09736 29.3287 5.91336 29.1847 5.68136C29.0487 5.44936 28.9807 5.14936 28.9807 4.78136C28.9807 4.37336 29.0967 4.01336 29.3287 3.70136C29.5687 3.38936 29.9127 3.14536 30.3607 2.96936C30.8087 2.78536 31.3447 2.69336 31.9687 2.69336C32.4087 2.69336 32.8567 2.74136 33.3127 2.83736C33.7687 2.93336 34.1487 3.07336 34.4527 3.25736L33.8287 4.58936C33.5167 4.40536 33.2007 4.28136 32.8807 4.21736C32.5687 4.14536 32.2647 4.10936 31.9687 4.10936C31.5527 4.10936 31.2487 4.16536 31.0567 4.27736C30.8647 4.38936 30.7687 4.53336 30.7687 4.70936C30.7687 4.86936 30.8367 4.98936 30.9727 5.06936C31.1167 5.14936 31.3047 5.21336 31.5367 5.26136C31.7687 5.30936 32.0207 5.35336 32.2927 5.39336C32.5727 5.42536 32.8527 5.47736 33.1327 5.54936C33.4127 5.62136 33.6647 5.72536 33.8887 5.86136C34.1207 5.98936 34.3087 6.16936 34.4527 6.40136C34.5967 6.62536 34.6687 6.92136 34.6687 7.28936C34.6687 7.68936 34.5487 8.04536 34.3087 8.35736C34.0687 8.66136 33.7207 8.90136 33.2647 9.07736C32.8167 9.25336 32.2687 9.34136 31.6207 9.34136ZM38.6677 9.34136C37.9317 9.34136 37.2837 9.19736 36.7237 8.90936C36.1717 8.62136 35.7437 8.22936 35.4397 7.73336C35.1357 7.22936 34.9837 6.65736 34.9837 6.01736C34.9837 5.36936 35.1317 4.79736 35.4277 4.30136C35.7317 3.79736 36.1437 3.40536 36.6637 3.12536C37.1837 2.83736 37.7717 2.69336 38.4277 2.69336C39.0597 2.69336 39.6277 2.82936 40.1317 3.10136C40.6437 3.36536 41.0477 3.74936 41.3437 4.25336C41.6397 4.74936 41.7877 5.34536 41.7877 6.04136C41.7877 6.11336 41.7837 6.19736 41.7757 6.29336C41.7677 6.38136 41.7597 6.46536 41.7517 6.54536H36.5077V5.45336H40.7677L40.0477 5.77736C40.0477 5.44136 39.9797 5.14936 39.8437 4.90136C39.7077 4.65336 39.5197 4.46136 39.2797 4.32536C39.0397 4.18136 38.7597 4.10936 38.4397 4.10936C38.1197 4.10936 37.8357 4.18136 37.5877 4.32536C37.3477 4.46136 37.1597 4.65736 37.0237 4.91336C36.8877 5.16136 36.8197 5.45736 36.8197 5.80136V6.08936C36.8197 6.44136 36.8957 6.75336 37.0477 7.02536C37.2077 7.28936 37.4277 7.49336 37.7077 7.63736C37.9957 7.77336 38.3317 7.84136 38.7157 7.84136C39.0597 7.84136 39.3597 7.78936 39.6157 7.68536C39.8797 7.58136 40.1197 7.42536 40.3357 7.21736L41.3317 8.29736C41.0357 8.63336 40.6637 8.89336 40.2157 9.07736C39.7677 9.25336 39.2517 9.34136 38.6677 9.34136ZM49.8644 9.38936C49.2164 9.38936 48.6124 9.28536 48.0524 9.07736C47.5004 8.86136 47.0204 8.55736 46.6124 8.16536C46.2044 7.77336 45.8844 7.31336 45.6524 6.78536C45.4284 6.25736 45.3164 5.67736 45.3164 5.04536C45.3164 4.41336 45.4284 3.83336 45.6524 3.30536C45.8844 2.77736 46.2044 2.31736 46.6124 1.92536C47.0284 1.53336 47.5124 1.23336 48.0644 1.02536C48.6164 0.809361 49.2204 0.701361 49.8764 0.701361C50.6044 0.701361 51.2604 0.829361 51.8444 1.08536C52.4364 1.33336 52.9324 1.70136 53.3324 2.18936L52.0844 3.34136C51.7964 3.01336 51.4764 2.76936 51.1244 2.60936C50.7724 2.44136 50.3884 2.35736 49.9724 2.35736C49.5804 2.35736 49.2204 2.42136 48.8924 2.54936C48.5644 2.67736 48.2804 2.86136 48.0404 3.10136C47.8004 3.34136 47.6124 3.62536 47.4764 3.95336C47.3484 4.28136 47.2844 4.64536 47.2844 5.04536C47.2844 5.44536 47.3484 5.80936 47.4764 6.13736C47.6124 6.46536 47.8004 6.74936 48.0404 6.98936C48.2804 7.22936 48.5644 7.41336 48.8924 7.54136C49.2204 7.66936 49.5804 7.73336 49.9724 7.73336C50.3884 7.73336 50.7724 7.65336 51.1244 7.49336C51.4764 7.32536 51.7964 7.07336 52.0844 6.73736L53.3324 7.88936C52.9324 8.37736 52.4364 8.74936 51.8444 9.00536C51.2604 9.26136 50.6004 9.38936 49.8644 9.38936ZM54.1532 9.24536V0.341361H56.0252V9.24536H54.1532ZM60.4746 9.34136C59.7866 9.34136 59.1746 9.19736 58.6386 8.90936C58.1106 8.62136 57.6906 8.22936 57.3786 7.73336C57.0746 7.22936 56.9226 6.65736 56.9226 6.01736C56.9226 5.36936 57.0746 4.79736 57.3786 4.30136C57.6906 3.79736 58.1106 3.40536 58.6386 3.12536C59.1746 2.83736 59.7866 2.69336 60.4746 2.69336C61.1546 2.69336 61.7626 2.83736 62.2986 3.12536C62.8346 3.40536 63.2546 3.79336 63.5586 4.28936C63.8626 4.78536 64.0146 5.36136 64.0146 6.01736C64.0146 6.65736 63.8626 7.22936 63.5586 7.73336C63.2546 8.22936 62.8346 8.62136 62.2986 8.90936C61.7626 9.19736 61.1546 9.34136 60.4746 9.34136ZM60.4746 7.80536C60.7866 7.80536 61.0666 7.73336 61.3146 7.58936C61.5626 7.44536 61.7586 7.24136 61.9026 6.97736C62.0466 6.70536 62.1186 6.38536 62.1186 6.01736C62.1186 5.64136 62.0466 5.32136 61.9026 5.05736C61.7586 4.79336 61.5626 4.58936 61.3146 4.44536C61.0666 4.30136 60.7866 4.22936 60.4746 4.22936C60.1626 4.22936 59.8826 4.30136 59.6346 4.44536C59.3866 4.58936 59.1866 4.79336 59.0346 5.05736C58.8906 5.32136 58.8186 5.64136 58.8186 6.01736C58.8186 6.38536 58.8906 6.70536 59.0346 6.97736C59.1866 7.24136 59.3866 7.44536 59.6346 7.58936C59.8826 7.73336 60.1626 7.80536 60.4746 7.80536ZM67.6298 9.34136C67.0938 9.34136 66.6138 9.23736 66.1898 9.02936C65.7738 8.82136 65.4498 8.50536 65.2178 8.08136C64.9858 7.64936 64.8698 7.10136 64.8698 6.43736V2.78936H66.7418V6.16136C66.7418 6.69736 66.8538 7.09336 67.0778 7.34936C67.3098 7.59736 67.6338 7.72136 68.0498 7.72136C68.3378 7.72136 68.5938 7.66136 68.8178 7.54136C69.0418 7.41336 69.2178 7.22136 69.3458 6.96536C69.4738 6.70136 69.5378 6.37336 69.5378 5.98136V2.78936H71.4098V9.24536H69.6338V7.46936L69.9578 7.98536C69.7418 8.43336 69.4218 8.77336 68.9978 9.00536C68.5818 9.22936 68.1258 9.34136 67.6298 9.34136ZM75.5561 9.34136C74.9481 9.34136 74.4001 9.20536 73.9121 8.93336C73.4241 8.65336 73.0361 8.26536 72.7481 7.76936C72.4681 7.27336 72.3281 6.68936 72.3281 6.01736C72.3281 5.33736 72.4681 4.74936 72.7481 4.25336C73.0361 3.75736 73.4241 3.37336 73.9121 3.10136C74.4001 2.82936 74.9481 2.69336 75.5561 2.69336C76.1001 2.69336 76.5761 2.81336 76.9841 3.05336C77.3921 3.29336 77.7081 3.65736 77.9321 4.14536C78.1561 4.63336 78.2681 5.25736 78.2681 6.01736C78.2681 6.76936 78.1601 7.39336 77.9441 7.88936C77.7281 8.37736 77.4161 8.74136 77.0081 8.98136C76.6081 9.22136 76.1241 9.34136 75.5561 9.34136ZM75.8801 7.80536C76.1841 7.80536 76.4601 7.73336 76.7081 7.58936C76.9561 7.44536 77.1521 7.24136 77.2961 6.97736C77.4481 6.70536 77.5241 6.38536 77.5241 6.01736C77.5241 5.64136 77.4481 5.32136 77.2961 5.05736C77.1521 4.79336 76.9561 4.58936 76.7081 4.44536C76.4601 4.30136 76.1841 4.22936 75.8801 4.22936C75.5681 4.22936 75.2881 4.30136 75.0401 4.44536C74.7921 4.58936 74.5921 4.79336 74.4401 5.05736C74.2961 5.32136 74.2241 5.64136 74.2241 6.01736C74.2241 6.38536 74.2961 6.70536 74.4401 6.97736C74.5921 7.24136 74.7921 7.44536 75.0401 7.58936C75.2881 7.73336 75.5681 7.80536 75.8801 7.80536ZM77.5721 9.24536V7.92536L77.6081 6.00536L77.4881 4.09736V0.341361H79.3601V9.24536H77.5721Z" fill="#4B1F65"/>
</svg>
