<svg width="80" height="10" viewBox="0 0 80 10" fill="none" xmlns="http://www.w3.org/2000/svg">
<path d="M5.19302 9.38931C4.54502 9.38931 3.94102 9.28531 3.38102 9.07731C2.82902 8.86131 2.34902 8.55731 1.94102 8.16531C1.53302 7.77331 1.21302 7.31331 0.981019 6.78531C0.757019 6.25731 0.64502 5.67731 0.64502 5.04531C0.64502 4.41331 0.757019 3.83331 0.981019 3.30531C1.21302 2.77731 1.53302 2.31731 1.94102 1.92531C2.35702 1.53331 2.84102 1.23331 3.39302 1.02531C3.94502 0.809309 4.54902 0.701309 5.20502 0.701309C5.93302 0.701309 6.58902 0.829309 7.17302 1.08531C7.76502 1.33331 8.26102 1.70131 8.66102 2.18931L7.41302 3.34131C7.12502 3.01331 6.80502 2.76931 6.45302 2.60931C6.10102 2.44131 5.71702 2.35731 5.30102 2.35731C4.90902 2.35731 4.54902 2.42131 4.22102 2.54931C3.89302 2.67731 3.60902 2.86131 3.36902 3.10131C3.12902 3.34131 2.94102 3.62531 2.80502 3.95331C2.67702 4.28131 2.61302 4.64531 2.61302 5.04531C2.61302 5.44531 2.67702 5.80931 2.80502 6.13731C2.94102 6.46531 3.12902 6.74931 3.36902 6.98931C3.60902 7.22931 3.89302 7.41331 4.22102 7.54131C4.54902 7.66931 4.90902 7.73331 5.30102 7.73331C5.71702 7.73331 6.10102 7.65331 6.45302 7.49331C6.80502 7.32531 7.12502 7.07331 7.41302 6.73731L8.66102 7.88931C8.26102 8.37731 7.76502 8.74931 7.17302 9.00531C6.58902 9.26131 5.92902 9.38931 5.19302 9.38931ZM12.3311 9.34131C11.6431 9.34131 11.0311 9.19731 10.4951 8.90931C9.96715 8.62131 9.54715 8.22931 9.23515 7.73331C8.93115 7.22931 8.77915 6.65731 8.77915 6.01731C8.77915 5.36931 8.93115 4.79731 9.23515 4.30131C9.54715 3.79731 9.96715 3.40531 10.4951 3.12531C11.0311 2.83731 11.6431 2.69331 12.3311 2.69331C13.0111 2.69331 13.6191 2.83731 14.1551 3.12531C14.6911 3.40531 15.1111 3.79331 15.4151 4.28931C15.7191 4.78531 15.8711 5.36131 15.8711 6.01731C15.8711 6.65731 15.7191 7.22931 15.4151 7.73331C15.1111 8.22931 14.6911 8.62131 14.1551 8.90931C13.6191 9.19731 13.0111 9.34131 12.3311 9.34131ZM12.3311 7.80531C12.6431 7.80531 12.9231 7.73331 13.1711 7.58931C13.4191 7.44531 13.6151 7.24131 13.7591 6.97731C13.9031 6.70531 13.9751 6.38531 13.9751 6.01731C13.9751 5.64131 13.9031 5.32131 13.7591 5.05731C13.6151 4.79331 13.4191 4.58931 13.1711 4.44531C12.9231 4.30131 12.6431 4.22931 12.3311 4.22931C12.0191 4.22931 11.7391 4.30131 11.4911 4.44531C11.2431 4.58931 11.0431 4.79331 10.8911 5.05731C10.7471 5.32131 10.6751 5.64131 10.6751 6.01731C10.6751 6.38531 10.7471 6.70531 10.8911 6.97731C11.0431 7.24131 11.2431 7.44531 11.4911 7.58931C11.7391 7.73331 12.0191 7.80531 12.3311 7.80531ZM19.4864 9.34131C18.9504 9.34131 18.4704 9.23731 18.0464 9.02931C17.6304 8.82131 17.3064 8.50531 17.0744 8.08131C16.8424 7.64931 16.7264 7.10131 16.7264 6.43731V2.78931H18.5984V6.16131C18.5984 6.69731 18.7104 7.09331 18.9344 7.34931C19.1664 7.59731 19.4904 7.72131 19.9064 7.72131C20.1944 7.72131 20.4504 7.66131 20.6744 7.54131C20.8984 7.41331 21.0744 7.22131 21.2024 6.96531C21.3304 6.70131 21.3944 6.37331 21.3944 5.98131V2.78931H23.2664V9.24531H21.4904V7.46931L21.8144 7.98531C21.5984 8.43331 21.2784 8.77331 20.8544 9.00531C20.4384 9.22931 19.9824 9.34131 19.4864 9.34131ZM24.6407 9.24531V2.78931H26.4287V4.61331L26.1767 4.08531C26.3687 3.62931 26.6767 3.28531 27.1007 3.05331C27.5247 2.81331 28.0407 2.69331 28.6487 2.69331V4.42131C28.5687 4.41331 28.4967 4.40931 28.4327 4.40931C28.3687 4.40131 28.3007 4.39731 28.2287 4.39731C27.7167 4.39731 27.3007 4.54531 26.9807 4.84131C26.6687 5.12931 26.5127 5.58131 26.5127 6.19731V9.24531H24.6407ZM31.6207 9.34131C31.0687 9.34131 30.5367 9.27731 30.0247 9.14931C29.5207 9.01331 29.1207 8.84531 28.8247 8.64531L29.4487 7.30131C29.7447 7.48531 30.0927 7.63731 30.4927 7.75731C30.9007 7.86931 31.3007 7.92531 31.6927 7.92531C32.1247 7.92531 32.4287 7.87331 32.6047 7.76931C32.7887 7.66531 32.8807 7.52131 32.8807 7.33731C32.8807 7.18531 32.8087 7.07331 32.6647 7.00131C32.5287 6.92131 32.3447 6.86131 32.1127 6.82131C31.8807 6.78131 31.6247 6.74131 31.3447 6.70131C31.0727 6.66131 30.7967 6.60931 30.5167 6.54531C30.2367 6.47331 29.9807 6.36931 29.7487 6.23331C29.5167 6.09731 29.3287 5.91331 29.1847 5.68131C29.0487 5.44931 28.9807 5.14931 28.9807 4.78131C28.9807 4.37331 29.0967 4.01331 29.3287 3.70131C29.5687 3.38931 29.9127 3.14531 30.3607 2.96931C30.8087 2.78531 31.3447 2.69331 31.9687 2.69331C32.4087 2.69331 32.8567 2.74131 33.3127 2.83731C33.7687 2.93331 34.1487 3.07331 34.4527 3.25731L33.8287 4.58931C33.5167 4.40531 33.2007 4.28131 32.8807 4.21731C32.5687 4.14531 32.2647 4.10931 31.9687 4.10931C31.5527 4.10931 31.2487 4.16531 31.0567 4.27731C30.8647 4.38931 30.7687 4.53331 30.7687 4.70931C30.7687 4.86931 30.8367 4.98931 30.9727 5.06931C31.1167 5.14931 31.3047 5.21331 31.5367 5.26131C31.7687 5.30931 32.0207 5.35331 32.2927 5.39331C32.5727 5.42531 32.8527 5.47731 33.1327 5.54931C33.4127 5.62131 33.6647 5.72531 33.8887 5.86131C34.1207 5.98931 34.3087 6.16931 34.4527 6.40131C34.5967 6.62531 34.6687 6.92131 34.6687 7.28931C34.6687 7.68931 34.5487 8.04531 34.3087 8.35731C34.0687 8.66131 33.7207 8.90131 33.2647 9.07731C32.8167 9.25331 32.2687 9.34131 31.6207 9.34131ZM38.6677 9.34131C37.9317 9.34131 37.2837 9.19731 36.7237 8.90931C36.1717 8.62131 35.7437 8.22931 35.4397 7.73331C35.1357 7.22931 34.9837 6.65731 34.9837 6.01731C34.9837 5.36931 35.1317 4.79731 35.4277 4.30131C35.7317 3.79731 36.1437 3.40531 36.6637 3.12531C37.1837 2.83731 37.7717 2.69331 38.4277 2.69331C39.0597 2.69331 39.6277 2.82931 40.1317 3.10131C40.6437 3.36531 41.0477 3.74931 41.3437 4.25331C41.6397 4.74931 41.7877 5.34531 41.7877 6.04131C41.7877 6.11331 41.7837 6.19731 41.7757 6.29331C41.7677 6.38131 41.7597 6.46531 41.7517 6.54531H36.5077V5.45331H40.7677L40.0477 5.77731C40.0477 5.44131 39.9797 5.14931 39.8437 4.90131C39.7077 4.65331 39.5197 4.46131 39.2797 4.32531C39.0397 4.18131 38.7597 4.10931 38.4397 4.10931C38.1197 4.10931 37.8357 4.18131 37.5877 4.32531C37.3477 4.46131 37.1597 4.65731 37.0237 4.91331C36.8877 5.16131 36.8197 5.45731 36.8197 5.80131V6.08931C36.8197 6.44131 36.8957 6.75331 37.0477 7.02531C37.2077 7.28931 37.4277 7.49331 37.7077 7.63731C37.9957 7.77331 38.3317 7.84131 38.7157 7.84131C39.0597 7.84131 39.3597 7.78931 39.6157 7.68531C39.8797 7.58131 40.1197 7.42531 40.3357 7.21731L41.3317 8.29731C41.0357 8.63331 40.6637 8.89331 40.2157 9.07731C39.7677 9.25331 39.2517 9.34131 38.6677 9.34131ZM49.8644 9.38931C49.2164 9.38931 48.6124 9.28531 48.0524 9.07731C47.5004 8.86131 47.0204 8.55731 46.6124 8.16531C46.2044 7.77331 45.8844 7.31331 45.6524 6.78531C45.4284 6.25731 45.3164 5.67731 45.3164 5.04531C45.3164 4.41331 45.4284 3.83331 45.6524 3.30531C45.8844 2.77731 46.2044 2.31731 46.6124 1.92531C47.0284 1.53331 47.5124 1.23331 48.0644 1.02531C48.6164 0.809309 49.2204 0.701309 49.8764 0.701309C50.6044 0.701309 51.2604 0.829309 51.8444 1.08531C52.4364 1.33331 52.9324 1.70131 53.3324 2.18931L52.0844 3.34131C51.7964 3.01331 51.4764 2.76931 51.1244 2.60931C50.7724 2.44131 50.3884 2.35731 49.9724 2.35731C49.5804 2.35731 49.2204 2.42131 48.8924 2.54931C48.5644 2.67731 48.2804 2.86131 48.0404 3.10131C47.8004 3.34131 47.6124 3.62531 47.4764 3.95331C47.3484 4.28131 47.2844 4.64531 47.2844 5.04531C47.2844 5.44531 47.3484 5.80931 47.4764 6.13731C47.6124 6.46531 47.8004 6.74931 48.0404 6.98931C48.2804 7.22931 48.5644 7.41331 48.8924 7.54131C49.2204 7.66931 49.5804 7.73331 49.9724 7.73331C50.3884 7.73331 50.7724 7.65331 51.1244 7.49331C51.4764 7.32531 51.7964 7.07331 52.0844 6.73731L53.3324 7.88931C52.9324 8.37731 52.4364 8.74931 51.8444 9.00531C51.2604 9.26131 50.6004 9.38931 49.8644 9.38931ZM54.1532 9.24531V0.341309H56.0252V9.24531H54.1532ZM60.4746 9.34131C59.7866 9.34131 59.1746 9.19731 58.6386 8.90931C58.1106 8.62131 57.6906 8.22931 57.3786 7.73331C57.0746 7.22931 56.9226 6.65731 56.9226 6.01731C56.9226 5.36931 57.0746 4.79731 57.3786 4.30131C57.6906 3.79731 58.1106 3.40531 58.6386 3.12531C59.1746 2.83731 59.7866 2.69331 60.4746 2.69331C61.1546 2.69331 61.7626 2.83731 62.2986 3.12531C62.8346 3.40531 63.2546 3.79331 63.5586 4.28931C63.8626 4.78531 64.0146 5.36131 64.0146 6.01731C64.0146 6.65731 63.8626 7.22931 63.5586 7.73331C63.2546 8.22931 62.8346 8.62131 62.2986 8.90931C61.7626 9.19731 61.1546 9.34131 60.4746 9.34131ZM60.4746 7.80531C60.7866 7.80531 61.0666 7.73331 61.3146 7.58931C61.5626 7.44531 61.7586 7.24131 61.9026 6.97731C62.0466 6.70531 62.1186 6.38531 62.1186 6.01731C62.1186 5.64131 62.0466 5.32131 61.9026 5.05731C61.7586 4.79331 61.5626 4.58931 61.3146 4.44531C61.0666 4.30131 60.7866 4.22931 60.4746 4.22931C60.1626 4.22931 59.8826 4.30131 59.6346 4.44531C59.3866 4.58931 59.1866 4.79331 59.0346 5.05731C58.8906 5.32131 58.8186 5.64131 58.8186 6.01731C58.8186 6.38531 58.8906 6.70531 59.0346 6.97731C59.1866 7.24131 59.3866 7.44531 59.6346 7.58931C59.8826 7.73331 60.1626 7.80531 60.4746 7.80531ZM67.6298 9.34131C67.0938 9.34131 66.6138 9.23731 66.1898 9.02931C65.7738 8.82131 65.4498 8.50531 65.2178 8.08131C64.9858 7.64931 64.8698 7.10131 64.8698 6.43731V2.78931H66.7418V6.16131C66.7418 6.69731 66.8538 7.09331 67.0778 7.34931C67.3098 7.59731 67.6338 7.72131 68.0498 7.72131C68.3378 7.72131 68.5938 7.66131 68.8178 7.54131C69.0418 7.41331 69.2178 7.22131 69.3458 6.96531C69.4738 6.70131 69.5378 6.37331 69.5378 5.98131V2.78931H71.4098V9.24531H69.6338V7.46931L69.9578 7.98531C69.7418 8.43331 69.4218 8.77331 68.9978 9.00531C68.5818 9.22931 68.1258 9.34131 67.6298 9.34131ZM75.5561 9.34131C74.9481 9.34131 74.4001 9.20531 73.9121 8.93331C73.4241 8.65331 73.0361 8.26531 72.7481 7.76931C72.4681 7.27331 72.3281 6.68931 72.3281 6.01731C72.3281 5.33731 72.4681 4.74931 72.7481 4.25331C73.0361 3.75731 73.4241 3.37331 73.9121 3.10131C74.4001 2.82931 74.9481 2.69331 75.5561 2.69331C76.1001 2.69331 76.5761 2.81331 76.9841 3.05331C77.3921 3.29331 77.7081 3.65731 77.9321 4.14531C78.1561 4.63331 78.2681 5.25731 78.2681 6.01731C78.2681 6.76931 78.1601 7.39331 77.9441 7.88931C77.7281 8.37731 77.4161 8.74131 77.0081 8.98131C76.6081 9.22131 76.1241 9.34131 75.5561 9.34131ZM75.8801 7.80531C76.1841 7.80531 76.4601 7.73331 76.7081 7.58931C76.9561 7.44531 77.1521 7.24131 77.2961 6.97731C77.4481 6.70531 77.5241 6.38531 77.5241 6.01731C77.5241 5.64131 77.4481 5.32131 77.2961 5.05731C77.1521 4.79331 76.9561 4.58931 76.7081 4.44531C76.4601 4.30131 76.1841 4.22931 75.8801 4.22931C75.5681 4.22931 75.2881 4.30131 75.0401 4.44531C74.7921 4.58931 74.5921 4.79331 74.4401 5.05731C74.2961 5.32131 74.2241 5.64131 74.2241 6.01731C74.2241 6.38531 74.2961 6.70531 74.4401 6.97731C74.5921 7.24131 74.7921 7.44531 75.0401 7.58931C75.2881 7.73331 75.5681 7.80531 75.8801 7.80531ZM77.5721 9.24531V7.92531L77.6081 6.00531L77.4881 4.09731V0.341309H79.3601V9.24531H77.5721Z" fill="white"/>
</svg>
